<svg xmlns="http://www.w3.org/2000/svg" width="256" height="256"><path fill-opacity=".016" d="M0 128.004v128.004l128.25-.254 128.25-.254.254-127.75L257.008 0H0v128.004m.485.496c0 70.4.119 99.053.265 63.672.146-35.38.146-92.98 0-128C.604 29.153.485 58.1.485 128.5" fill="#1976D2" fill-rule="evenodd"/><path fill-opacity=".342" d="M147 59.659c0 3.34-1.006 6.666-3.554 11.753l-3.553 7.094-4.447-.354c-2.445-.194-4.446-.152-4.446.094s.718 1.885 1.595 3.643c1.333 2.673 1.529 6.182 1.198 21.404-.271 12.481-.816 19.058-1.734 20.912-1.094 2.21-1.107 3.266-.069 5.771 1.701 4.106 2.405 4.388 6.13 2.462 3.582-1.852 19.817-4.986 31.152-6.014 6.943-.629 7.605-.523 8.624 1.382 2.558 4.779.653 26.238-2.958 33.315-2.287 4.484-4.748 4.938-12.498 2.307-2.546-.864-4.896-1.305-5.222-.979-.326.326 1.244 2.496 3.49 4.822 2.245 2.326 5.039 6.142 6.208 8.479 2.736 5.472 4.737 5.435 9.915-.183 5.675-6.156 6.882-9.668 9.14-26.595 1.085-8.133 2.756-16.428 3.712-18.434 2.098-4.398 1.347-6.033-4.279-9.317-4.579-2.674-6.622-2.584-23.404 1.029-6.325 1.362-13.637 2.79-16.25 3.174l-4.75.699v-21.562c0-11.858.228-21.561.507-21.561.278 0 5.093-.689 10.698-1.531 5.606-.842 10.778-1.306 11.494-1.031 1.644.631 1.832 20.702.221 23.711-.943 1.763-1.699 1.932-6 1.34-5.746-.79-6.359.35-1.897 3.527 1.662 1.184 3.921 3.915 5.02 6.068 2.254 4.418 2.615 4.556 5.582 2.144 4.809-3.911 5.81-6.998 6.415-19.79.439-9.261 1.004-12.857 2.345-14.903 2.181-3.328 1.62-4.952-2.601-7.526-3.836-2.338-7.797-2.558-11.584-.643-3.481 1.761-13.132 4.035-13.893 3.274-.724-.724 3.668-6.751 8.96-12.297 4.51-4.726 4.316-5.72-1.64-8.425-6.648-3.019-7.627-2.667-7.627 2.741m-51.1-2.384c-.055.124-.17 4.367-.255 9.43-.085 5.062-.621 9.671-1.19 10.24-.57.57-3.163 1.327-5.764 1.684-3.772.517-5.129.284-6.715-1.151-1.094-.99-2.157-1.614-2.363-1.389-.641.704-5.771 13.305-6.274 15.414C72.759 93.935 74.55 99 75.99 99c1.543 0 4.9-5.892 6.174-10.835 1.184-4.599 1.268-4.666 7.08-5.631l3.745-.623-2.597 7.295c-6.085 17.092-16.189 34.991-26.517 46.978-2.694 3.126-4.489 5.937-3.99 6.245 1.727 1.067 12.859-8.248 17.728-14.835l4.887-6.611.35 7.258c.193 3.993-.201 14.035-.875 22.316-1.104 13.561-1.062 15.375.425 18.25.908 1.756 2.046 3.193 2.528 3.193 1.19 0 2.885-5.112 3.679-11.095.524-3.947 1.078-5.018 2.774-5.362 4.701-.952 19.397-3.48 23.619-4.062 6.02-.83 11-2.431 11-3.535 0-.495-1.137-1.645-2.526-2.555-2.326-1.524-2.965-1.53-8.079-.075l-5.553 1.58.693-4.198c.381-2.309.755-4.219.829-4.244.075-.026 2.803-.701 6.064-1.5 6.585-1.615 8.014-3.34 4.205-5.075-1.812-.826-3.666-.86-6.578-.121L111 132.787v-3.785c0-3.276.362-3.876 2.695-4.461 1.482-.372 4.237-1.321 6.122-2.109 2.988-1.249 3.257-1.638 2.095-3.038-.99-1.192-2.464-1.479-5.718-1.112-4.182.471-4.363.384-3.929-1.888.257-1.344-.165-2.896-.968-3.563-1.155-.958-.305-1.524 4.516-3.004 7.231-2.22 9.269-4.174 6.863-6.58-1.537-1.537-2.793-1.366-17.914 2.434-8.944 2.247-16.39 3.973-16.546 3.835-.156-.138 1.991-4.902 4.771-10.588 2.781-5.685 5.58-12.088 6.221-14.228 1.274-4.254 2.686-5.112 10.286-6.251l4.811-.722-.629 2.887c-.345 1.587-.916 3.899-1.269 5.136-.872 3.065.757 2.868 5.66-.683 2.227-1.614 5.368-3.223 6.979-3.577 1.612-.354 3.208-1.093 3.547-1.641.902-1.459-3.109-5.327-7.648-7.374-3.671-1.655-4.205-1.667-7.695-.17-2.062.885-5.42 2.038-7.461 2.561l-3.711.951 2.042-5.158c3.347-8.45 3.347-8.366-.016-10.105-3.456-1.788-8.051-3.624-8.204-3.279m49.613 31.704c-.912 1.475.92 4.276 5.507 8.42 3.392 3.065 4.387 3.508 5.603 2.499 2.584-2.145 1.298-7.052-2.521-9.616-3.541-2.378-7.549-2.986-8.589-1.303m-44.957 3.931c-1.177 1.904.825 4.129 5.988 6.655 2.943 1.44 5.824 2.325 6.403 1.968 1.935-1.196 1.182-6.329-1.17-7.976-2.398-1.68-10.301-2.136-11.221-.647M89.744 115.5c.895 2.521.881 4.795-.137 21.895l-.827 13.896 2.36-.624c1.298-.343 4.722-1.155 7.61-1.804 5.217-1.174 5.25-1.205 5.25-5.022V140h-4.378c-5.618 0-8.186-2.455-4.166-3.983 1.471-.56 3.283-1.017 4.027-1.017 3.243 0 4.517-1.299 4.517-4.607 0-3.323-.088-3.393-4.25-3.408-4.526-.017-7.712-1.352-6.394-2.681.439-.442 2.901-1.255 5.471-1.806 4.594-.985 4.678-1.073 4.979-5.223l.306-4.222-7.539.224c-7.067.209-7.495.348-6.829 2.223m71.756 24.15c-4.745 1.79-23.451 5.35-28.11 5.35-3.996 0-5.366 1.813-2.793 3.695 3.442 2.517 6.536 2.61 15.826.476 5.047-1.159 13.585-2.649 18.974-3.311 10.72-1.318 12.726-2.724 8.509-5.966-2.878-2.212-6.975-2.293-12.406-.244" fill="#1976D2" fill-rule="evenodd"/><path fill-opacity=".443" d="M147.666 55.667c-.379.38-.438 2.072-.131 3.761.419 2.308-.437 5.12-3.446 11.309l-4.004 8.236-4.543-.622c-5.016-.688-5.278-.404-2.932 3.177 2.905 4.433 2.816 23.744-.207 45.028-.863 6.077.876 7.041 8.251 4.575 6.417-2.146 24.892-5.131 31.754-5.131 2.391 0 4.794.563 5.339 1.25 1.831 2.307 2.308 8.456 1.326 17.094-1.302 11.461-2.737 16.411-5.584 19.258-2.576 2.576-5.557 2.516-12.393-.251-1.871-.757-3.644-1.136-3.939-.841-.295.295 1.553 2.663 4.107 5.263 2.554 2.6 5.346 6.415 6.203 8.477.919 2.21 2.244 3.75 3.227 3.75 2.648 0 10.051-8.717 11.747-13.832.851-2.567 2.222-9.843 3.046-16.168 1.838-14.115 2.381-16.769 4.126-20.187 1.941-3.799.953-5.389-5.229-8.413-5.374-2.63-5.471-2.639-11.153-1.065-6.773 1.877-27.523 5.665-31.033 5.665h-2.453l.719-21.25c.396-11.687 1.016-21.542 1.378-21.9.362-.357 5.527-1.234 11.477-1.947 9.334-1.119 10.955-1.098 11.805.15 1.101 1.619.575 20.358-.655 23.321-.668 1.608-1.536 1.796-6.124 1.322-2.94-.303-5.345-.358-5.345-.121s1.806 2.062 4.013 4.056c2.207 1.994 4.281 4.693 4.609 5.997.753 3.001 3.408 3.054 6.079.122 3.876-4.255 4.665-7.172 5.257-19.421.478-9.882.936-12.554 2.437-14.213 2.519-2.784 1.499-4.708-3.886-7.324-4.088-1.986-4.886-2.076-7.782-.874-4.628 1.92-16.979 5.164-17.537 4.606-.67-.67 10.653-15.524 11.834-15.524.537 0 .976-.923.976-2.051 0-1.375-1.072-2.489-3.25-3.38-5.227-2.138-7.349-2.637-8.084-1.902M95.5 67.417c0 5.179-.281 9.697-.624 10.04-.343.343-3.043 1.019-6 1.502-4.88.797-5.531.679-7.058-1.276-.924-1.184-1.851-1.935-2.058-1.668-.207.267-1.802 4.198-3.543 8.735-2.485 6.475-2.963 8.789-2.217 10.75.523 1.375 1.581 2.5 2.352 2.5 1.37 0 4.814-6.819 6.164-12.203.572-2.282 1.372-2.808 5.127-3.371 2.447-.367 4.666-.45 4.932-.185.754.755-4.348 14.336-9.114 24.259-4.938 10.282-12.198 21.556-18.919 29.378-2.541 2.957-4.401 5.596-4.134 5.864 1.604 1.604 13.344-9.038 19.571-17.742l3.219-4.5-.676 18.5c-1.152 31.511-1.194 29.758.764 31.715 2.365 2.363 3.233.96 4.787-7.734l1.172-6.562 9.628-1.713c5.295-.942 13.152-2.222 17.46-2.843 7.851-1.133 10.602-2.955 7.563-5.007-1.404-.948-7.409-.582-11.71.714-2.201.663-2.299.484-2-3.687l.314-4.383 5.939-1.568c3.267-.863 6.107-2.07 6.311-2.683.52-1.56-3.426-3.473-5.788-2.804-1.079.305-2.89.819-4.024 1.142-1.881.536-2.034.216-1.75-3.651.303-4.112.452-4.278 5.013-5.603 2.585-.751 5.005-1.858 5.378-2.461 1.146-1.855-1.864-2.958-6.365-2.334-4.208.585-4.274.549-3.638-1.984.366-1.461.143-3.188-.516-3.981-.955-1.152-.185-1.685 4.327-2.997 9.537-2.773 11.267-7.248 2.455-6.349-2.388.243-8.617 1.585-13.842 2.982-5.225 1.396-11.222 2.847-13.327 3.225l-3.827.686 2.685-4.583c1.477-2.52 4.648-9.41 7.046-15.31l4.36-10.727 6.539-.909c3.597-.499 6.766-.682 7.043-.406.276.277-.153 2.362-.955 4.633-.801 2.272-1.099 4.351-.661 4.622.438.27 2.551-.781 4.696-2.336 2.146-1.556 5.251-3.265 6.901-3.799 4.191-1.356 4.316-3.832.318-6.299-5.256-3.244-7.464-3.396-14.946-1.035-3.86 1.219-7.245 1.989-7.522 1.713-.276-.277.601-3.235 1.95-6.574 2.653-6.57 2.637-6.623-3-9.485-5.586-2.836-5.8-2.548-5.8 7.792M146 90.118c0 2.444 7.011 9.882 9.315 9.882 1.9 0 3.054-3.262 2.156-6.092-.617-1.943-7.377-5.836-10.221-5.886-.687-.012-1.25.931-1.25 2.096m-44.62 3.334c-.798 2.079.229 3.308 4.648 5.562 5.289 2.699 7.976 2.609 7.957-.264-.021-3.092-1.048-4.443-4.32-5.687-3.931-1.495-7.629-1.321-8.285.389m-5.88 19.286l-6 .352-.312 19.409-.313 19.408 7.246-2.008c3.985-1.104 7.613-2.235 8.062-2.512.45-.278.817-2.053.817-3.946 0-3.389-.065-3.441-4.309-3.441-2.37 0-5.171-.63-6.225-1.401-1.784-1.305-1.608-1.48 2.559-2.559 2.461-.638 5.262-1.388 6.225-1.667 1.228-.356 1.75-1.531 1.75-3.94 0-3.379-.067-3.433-4.309-3.433-2.37 0-5.142-.609-6.159-1.353-1.675-1.225-1.289-1.491 4.058-2.796 3.292-.803 5.866-1.976 5.81-2.647-.055-.662-.167-2.779-.25-4.704-.093-2.173-.624-3.427-1.4-3.307-.687.106-3.95.351-7.25.545m65.5 27.378c-3.025 1.084-11.446 2.92-18.714 4.081-7.577 1.211-12.964 2.516-12.628 3.059.323.522 2.141 1.598 4.041 2.392 3.11 1.299 4.27 1.241 11.628-.583 4.495-1.114 13.019-2.643 18.942-3.398 5.923-.754 11.098-1.701 11.5-2.104 1.126-1.129-4.601-5.572-7.075-5.49-1.207.04-4.669.96-7.694 2.043" fill="#1976D2" fill-rule="evenodd"/><path fill-opacity=".456" d="M148 59.863c0 2.485-1.338 6.5-3.75 11.25L140.5 78.5l-4.632-.231-4.633-.23 1.883 3.692c1.595 3.128 1.875 5.912 1.838 18.23-.024 7.997-.477 16.564-1.007 19.039-2.059 9.606-2.1 10.49-.581 12.5 1.263 1.672 1.832 1.804 3.473.803 4.729-2.885 35.13-8.082 39.382-6.732 3.962 1.257 4.89 11.301 2.355 25.511-1.632 9.148-3.815 13.689-6.962 14.478-2.08.522-7.527-.483-12.429-2.294-.928-.343.26 1.509 2.639 4.116 2.38 2.606 4.96 6.256 5.735 8.11.775 1.854 1.854 3.647 2.399 3.983.545.337 3.01-1.249 5.478-3.525 5.848-5.39 7.86-11.011 9.957-27.806.917-7.346 2.328-14.938 3.136-16.872 2.114-5.06 1.893-5.912-2.263-8.736-4.289-2.914-8.014-3.167-16.124-1.092-3.104.794-9.919 2.155-15.144 3.025-5.225.87-10.738 1.831-12.25 2.136l-2.75.554.015-21.33c.009-11.731.346-21.818.75-22.416 1.181-1.748 22.241-4.653 23.878-3.294 1.83 1.518 1.859 20.35.038 23.881-1.143 2.215-1.832 2.465-6.042 2.194l-4.751-.306 4.056 4.056c2.231 2.231 4.056 4.704 4.056 5.497 0 4.292 5.142 2.183 7.864-3.224 1.362-2.707 2.009-6.764 2.381-14.927.407-8.926.934-11.929 2.589-14.733l2.078-3.522-3.298-2.516c-4.193-3.198-6.659-3.319-14.237-.7-8.61 2.976-14.946 3.929-13.854 2.083 1.718-2.902 9.316-12.476 11.355-14.307 3.08-2.765 2.633-4.173-1.898-5.986-6.134-2.455-6.98-2.182-6.98 2.254m-51.57 2.785c.664 4.987-.534 13.883-2.067 15.354-.475.455-3.363 1.132-6.42 1.504-5.169.629-5.632.513-6.644-1.665-1.047-2.254-1.115-2.267-1.817-.341-.402 1.1-1.799 4.417-3.106 7.371-2.533 5.725-2.971 9.695-1.34 12.129.861 1.285 1.275 1.178 2.891-.745 1.037-1.235 2.472-4.532 3.188-7.327 1.404-5.479 2.375-6.341 8.135-7.226 4.592-.706 4.64-.302 1.127 9.488-5.598 15.599-14.409 31.204-24.667 43.69-4.239 5.16-5.333 7-3.637 6.117 4.823-2.507 10.964-8.211 15.633-14.52 4.422-5.975 4.827-6.277 5.628-4.207 1.032 2.666.027 26.949-1.437 34.73-1.087 5.776.334 12.932 2.724 13.714 1.294.423 3.379-6.987 3.379-12.01v-3.411l7.25-1.257c3.987-.691 12.131-2.075 18.097-3.076 5.965-1.001 11.092-2.065 11.392-2.366.3-.3-.062-1.278-.805-2.174-1.343-1.617-3.586-1.582-11.184.177-2.694.623-2.75.542-2.75-3.961 0-4.199.239-4.652 2.75-5.217 8.369-1.885 10.346-2.625 9.959-3.725-.278-.787-2.515-1.113-6.565-.955-5.77.224-6.143.102-6.13-2 .032-5.263 1.043-6.553 6.086-7.763 5.625-1.35 6.765-2.443 4.056-3.893-1.254-.67-3.048-.688-5.272-.05-1.854.532-3.543.967-3.752.967-.21 0-.1-1.412.246-3.138.462-2.313.183-3.463-1.064-4.374-1.467-1.073-.971-1.446 3.748-2.818 6.538-1.902 9.539-3.889 8.474-5.612-1.015-1.642-5.236-1.044-19.893 2.818-6.521 1.718-12.677 3.124-13.68 3.124-1.57 0-1.154-1.424 2.993-10.25 2.65-5.638 5.63-12.56 6.624-15.384l1.807-5.135 6.539-1.083c7.609-1.261 8.783-.62 7.198 3.925-1.952 5.6-1.358 5.949 3.991 2.35 2.813-1.894 6.211-3.718 7.55-4.054 3.665-.92 2.489-3.414-2.924-6.199l-4.754-2.447-6.515 2.138c-10.454 3.433-10.662 3.291-7.473-5.1 1.1-2.894 2-5.587 2-5.985.001-.821-4.32-3.159-7.857-4.251-2.307-.713-2.344-.625-1.712 4.123M146 89.557c0 2.962 8.17 11.074 10.009 9.937 1.669-1.031 1.102-6.084-.885-7.882-2.007-1.816-9.124-3.419-9.124-2.055m-45 4.352c0 1.694 4.123 4.976 7.755 6.175 4.658 1.537 6.349-.022 4.198-3.869-1.304-2.332-2.255-2.758-6.736-3.017-3.056-.177-5.217.117-5.217.711m-12.993 18.776c-.004.102.425 1.322.954 2.711.6 1.58.64 8.816.105 19.315-.471 9.234-.723 16.931-.562 17.105.162.173 2.027-.134 4.145-.683 13.7-3.552 12.351-2.713 12.351-7.683v-4.474l-3.75.582c-2.519.391-4.398.099-5.725-.889-1.871-1.394-1.74-1.531 2.5-2.619 2.461-.632 5.038-1.337 5.725-1.568.728-.244 1.25-2.129 1.25-4.518 0-3.613-.232-4.025-1.956-3.478-2.265.719-9.044-.359-9.044-1.438 0-.401 2.475-1.284 5.5-1.961 5.451-1.22 5.5-1.263 5.485-4.909-.009-2.023-.346-4.178-.75-4.788-.58-.876-16.194-1.555-16.228-.705m71.107 28.373c-2.962 1.052-10.612 2.673-17 3.602-6.388.929-11.806 1.84-12.041 2.025-.235.185.44.992 1.5 1.794 2.459 1.86 7.146 1.895 14.283.107 5.275-1.322 13.164-2.646 24.394-4.096 5.082-.655 6.303-2.588 2.816-4.455-2.831-1.515-7.838-1.147-13.952 1.023" fill="#1976D2" fill-rule="evenodd"/></svg>